<svg width="24" height="24" viewBox="0 0 24 24" fill="none" xmlns="http://www.w3.org/2000/svg">
<path fill-rule="evenodd" clip-rule="evenodd" d="M24 12C24 18.6274 18.6274 24 12 24C5.37258 24 0 18.6274 0 12C0 5.37258 5.37258 0 12 0C18.6274 0 24 5.37258 24 12ZM5 19.1414V19C5 17.4087 5.7375 15.8826 7.05025 14.7574C7.79402 14.1198 8.68791 13.6406 9.66072 13.3449C8.36506 12.555 7.5 11.1285 7.5 9.5C7.5 7.01472 9.51472 5 12 5C14.4853 5 16.5 7.01472 16.5 9.5C16.5 11.1285 15.6349 12.555 14.3393 13.3449C15.3121 13.6406 16.206 14.1198 16.9497 14.7574C18.2625 15.8826 19 17.4087 19 19V19.1414C20.8514 17.3265 22 14.7974 22 12C22 6.47715 17.5228 2 12 2C6.47715 2 2 6.47715 2 12C2 14.7974 3.14864 17.3265 5 19.1414Z" fill="#333333"/>
</svg>
